# xmcd
#
# Track frame offsets: 
#        150
#        15655
#        29022
#        49779
#        67784
#        85789
#        96253
#        117423
#        133190
#
# Disc length: 1940 seconds
#
# Revision: 0
# Processed by: cddbd v1.5.2PL0 Copyright (c) Steve Scherf et al.
# Submitted via: ExactAudioCopy v0.99pb5
#
DISCID=74079209
DTITLE=Mr Plow - Bahadur Singh Memorial Concert
DYEAR=2011
DGENRE=Blues
TTITLE0=Tear Down The Bridge
TTITLE1=About A Car
TTITLE2=Mary Margaret
TTITLE3=Mr Plow's Inferno
TTITLE4=This Is Trouble
TTITLE5=Ballad Of Bahadur Singh
TTITLE6=Beautiful Bride
TTITLE7=Before The Flood
TTITLE8=This Train
EXTD=
EXTT0=
EXTT1=
EXTT2=
EXTT3=
EXTT4=
EXTT5=
EXTT6=
EXTT7=
EXTT8=
PLAYORDER=
